<svg width="75" height="15" viewBox="0 0 75 15" fill="none" xmlns="http://www.w3.org/2000/svg">
<path fill-rule="evenodd" clip-rule="evenodd" d="M9.4885 4.38199C8.87792 3.96994 8.16007 3.75 7.42574 3.75V0C8.89441 0 10.3301 0.439867 11.5513 1.26398C12.7724 2.08809 13.7242 3.25943 14.2862 4.62986C14.8483 6.0003 14.9953 7.50832 14.7088 8.96317C14.4223 10.418 13.7151 11.7544 12.6765 12.8033C11.638 13.8522 10.3149 14.5665 8.87443 14.8559C7.43399 15.1453 5.94089 14.9967 4.58402 14.4291C3.22715 13.8614 2.06741 12.9002 1.25146 11.6668C0.435512 10.4334 0 8.98335 0 7.5H3.71287C3.71287 8.24168 3.93063 8.9667 4.3386 9.58339C4.74657 10.2001 5.32645 10.6807 6.0049 10.9646C6.68332 11.2484 7.42986 11.3226 8.15009 11.1779C8.87031 11.0332 9.53187 10.6761 10.0512 10.1517C10.5704 9.62719 10.924 8.95901 11.0673 8.23159C11.2105 7.50416 11.137 6.75015 10.856 6.06495C10.575 5.37971 10.0991 4.79404 9.4885 4.38199Z" fill="white"/>
<path fill-rule="evenodd" clip-rule="evenodd" d="M3.71287 1.98185e-06C3.71287 0.492459 3.61684 0.980094 3.43025 1.43507C3.24365 1.89004 2.97017 2.30343 2.6254 2.65165C2.28063 2.99987 1.87132 3.2761 1.42085 3.46455C0.970386 3.653 0.48758 3.75 1.62293e-07 3.75L0 7.5C0.975161 7.5 1.94077 7.30601 2.84171 6.9291C3.74265 6.55219 4.56126 5.99974 5.25078 5.30329C5.94033 4.60688 6.48731 3.78008 6.86049 2.87013C7.23367 1.96018 7.42574 0.984913 7.42574 0L3.71287 1.98185e-06Z" fill="white"/>
<path d="M46.6407 5.41969H44.8392V11.1993H46.6407V5.41969Z" fill="white"/>
<path d="M45.0397 4.33747C45.228 4.52775 45.4634 4.62289 45.7459 4.62289C46.0285 4.62289 46.2601 4.52775 46.4406 4.33747C46.6214 4.13929 46.7116 3.90143 46.7116 3.62394C46.7116 3.33854 46.6214 3.10068 46.4406 2.91042C46.2601 2.72013 46.0285 2.625 45.7459 2.625C45.4634 2.625 45.228 2.72013 45.0397 2.91042C44.8589 3.10068 44.7687 3.33854 44.7687 3.62394C44.7687 3.90143 44.8589 4.13929 45.0397 4.33747Z" fill="white"/>
<path d="M18.9936 11.1993V2.80338H20.8422V9.55819H24.5277V11.1993H18.9936Z" fill="white"/>
<path fill-rule="evenodd" clip-rule="evenodd" d="M27.8567 11.3301C27.268 11.3301 26.7342 11.1993 26.2554 10.9377C25.7844 10.6681 25.4116 10.3034 25.1368 9.84356C24.8621 9.38374 24.7247 8.86841 24.7247 8.29759C24.7247 7.72676 24.8621 7.21541 25.1368 6.7635C25.4116 6.31159 25.7844 5.95481 26.2554 5.69321C26.7264 5.42362 27.2602 5.28885 27.8567 5.28885C28.4533 5.28885 28.9871 5.41969 29.458 5.68129C29.929 5.94292 30.3019 6.30367 30.5766 6.7635C30.8514 7.21541 30.9887 7.72676 30.9887 8.29759C30.9887 8.86841 30.8514 9.38374 30.5766 9.84356C30.3019 10.3034 29.929 10.6681 29.458 10.9377C28.9871 11.1993 28.4533 11.3301 27.8567 11.3301ZM27.8567 9.6771C28.1158 9.6771 28.3434 9.6216 28.5397 9.5106C28.7359 9.39169 28.885 9.22916 28.9871 9.02302C29.097 8.80897 29.1519 8.56714 29.1519 8.29759C29.1519 8.02804 29.097 7.79415 28.9871 7.59596C28.8772 7.38982 28.7241 7.23128 28.5278 7.12028C28.3395 7.00133 28.1158 6.94189 27.8567 6.94189C27.6055 6.94189 27.3818 7.00133 27.1856 7.12028C26.9893 7.23128 26.8363 7.38982 26.7264 7.59596C26.6165 7.8021 26.5615 8.03992 26.5615 8.30947C26.5615 8.57111 26.6165 8.80897 26.7264 9.02302C26.8363 9.22916 26.9893 9.39169 27.1856 9.5106C27.3818 9.6216 27.6055 9.6771 27.8567 9.6771Z" fill="white"/>
<path fill-rule="evenodd" clip-rule="evenodd" d="M32.4155 13.4588C32.8943 13.6808 33.4477 13.7918 34.0757 13.7918C34.6879 13.7918 35.2335 13.6689 35.7123 13.4231C36.1912 13.1773 36.5679 12.8365 36.8427 12.4004C37.1174 11.9644 37.2549 11.4491 37.2549 10.8544V5.41969H35.4886V5.808C35.3572 5.69633 35.208 5.60257 35.0412 5.52671C34.735 5.37607 34.3857 5.30074 33.9933 5.30074C33.4673 5.30074 33.0003 5.4276 32.5921 5.68129C32.1839 5.92706 31.8621 6.26797 31.6266 6.70402C31.3911 7.13216 31.2734 7.61576 31.2734 8.1549C31.2734 8.68609 31.3911 9.16969 31.6266 9.60574C31.8621 10.0418 32.1839 10.3867 32.5921 10.6404C33.0003 10.8941 33.4673 11.0209 33.9933 11.0209C34.3779 11.0209 34.7272 10.9456 35.0412 10.795C35.1933 10.722 35.3306 10.636 35.4533 10.537V10.902C35.4533 11.3063 35.3238 11.6195 35.0647 11.8415C34.8136 12.0635 34.4642 12.1744 34.0168 12.1744C33.6557 12.1744 33.3457 12.111 33.0866 11.9842C32.8354 11.8573 32.6078 11.671 32.4037 11.4252L31.2969 12.5431C31.5716 12.9395 31.9445 13.2448 32.4155 13.4588ZM34.9823 9.23707C34.8017 9.34807 34.5859 9.40357 34.3347 9.40357C34.0835 9.40357 33.8637 9.34807 33.6753 9.23707C33.4948 9.12607 33.3535 8.97544 33.2515 8.78516C33.1494 8.58697 33.0984 8.37686 33.0984 8.1549C33.0984 7.91704 33.1494 7.70299 33.2515 7.51271C33.3535 7.32244 33.4987 7.1718 33.6871 7.0608C33.8755 6.9498 34.0914 6.8943 34.3347 6.8943C34.5859 6.8943 34.8017 6.9498 34.9823 7.0608C35.1707 7.1718 35.312 7.32244 35.4062 7.51271C35.5082 7.70299 35.5592 7.91704 35.5592 8.1549C35.5592 8.39273 35.5082 8.60677 35.4062 8.79705C35.312 8.97941 35.1707 9.12607 34.9823 9.23707Z" fill="white"/>
<path fill-rule="evenodd" clip-rule="evenodd" d="M41.0462 11.3301C40.4573 11.3301 39.9234 11.1993 39.4448 10.9377C38.9736 10.6681 38.6009 10.3034 38.3261 9.84356C38.0514 9.38374 37.914 8.86841 37.914 8.29759C37.914 7.72676 38.0514 7.21541 38.3261 6.7635C38.6009 6.31159 38.9736 5.95481 39.4448 5.69321C39.9156 5.42362 40.4495 5.28885 41.0462 5.28885C41.6425 5.28885 42.1764 5.41969 42.6472 5.68129C43.1183 5.94292 43.4911 6.30367 43.7658 6.7635C44.0406 7.21541 44.178 7.72676 44.178 8.29759C44.178 8.86841 44.0406 9.38374 43.7658 9.84356C43.4911 10.3034 43.1183 10.6681 42.6472 10.9377C42.1764 11.1993 41.6425 11.3301 41.0462 11.3301ZM41.0462 9.6771C41.305 9.6771 41.5326 9.6216 41.729 9.5106C41.925 9.39169 42.0743 9.22916 42.1764 9.02302C42.2863 8.80897 42.3412 8.56714 42.3412 8.29759C42.3412 8.02804 42.2863 7.79415 42.1764 7.59596C42.0665 7.38982 41.9135 7.23128 41.7171 7.12028C41.5288 7.00133 41.305 6.94189 41.0462 6.94189C40.7948 6.94189 40.5709 7.00133 40.3749 7.12028C40.1785 7.23128 40.0255 7.38982 39.9156 7.59596C39.8057 7.8021 39.7507 8.03992 39.7507 8.30947C39.7507 8.57111 39.8057 8.80897 39.9156 9.02302C40.0255 9.22916 40.1785 9.39169 40.3749 9.5106C40.5709 9.6216 40.7948 9.6771 41.0462 9.6771Z" fill="white"/>
<path fill-rule="evenodd" clip-rule="evenodd" d="M50.9707 11.3182C50.5864 11.3182 50.2329 11.2429 49.911 11.0923C49.7417 11.013 49.5887 10.9184 49.4521 10.8083V13.6372H47.674V5.41969H49.4755V5.81857C49.6062 5.71061 49.7514 5.61727 49.911 5.5386C50.2329 5.38001 50.5864 5.30074 50.9707 5.30074C51.5124 5.30074 51.9913 5.43157 52.4072 5.69321C52.8312 5.95481 53.1609 6.31159 53.3963 6.7635C53.6399 7.21541 53.7613 7.73074 53.7613 8.30947C53.7613 8.88825 53.6399 9.40357 53.3963 9.85549C53.1609 10.3074 52.8312 10.6641 52.4072 10.9258C51.9913 11.1874 51.5124 11.3182 50.9707 11.3182ZM50.6413 9.6771C50.9001 9.6771 51.124 9.61763 51.3123 9.49871C51.5087 9.3798 51.6616 9.21724 51.7715 9.01114C51.8814 8.805 51.9364 8.57111 51.9364 8.30947C51.9364 8.03992 51.8814 7.8021 51.7715 7.59596C51.6616 7.38982 51.5087 7.23128 51.3123 7.12028C51.124 7.00133 50.9042 6.94189 50.6528 6.94189C50.4019 6.94189 50.178 7.00133 49.9819 7.12028C49.7933 7.23128 49.6444 7.38982 49.5345 7.59596C49.4246 7.8021 49.3697 8.03992 49.3697 8.30947C49.3697 8.57111 49.4205 8.805 49.5226 9.01114C49.6325 9.21724 49.7855 9.3798 49.9819 9.49871C50.178 9.61763 50.3978 9.6771 50.6413 9.6771Z" fill="white"/>
<path d="M55.5245 11.2112C55.8542 11.2984 56.1876 11.342 56.5251 11.342C57.2395 11.342 57.8046 11.1755 58.2208 10.8425C58.6444 10.5096 58.8564 10.0616 58.8564 9.49871C58.8564 9.13402 58.79 8.84066 58.6563 8.6187C58.523 8.38879 58.3504 8.20643 58.1384 8.07165C57.9264 7.93688 57.7025 7.82981 57.4671 7.75054C57.2317 7.67126 57.0078 7.60388 56.7962 7.54838C56.5842 7.49288 56.4115 7.42946 56.2778 7.3581C56.1446 7.28674 56.0777 7.1916 56.0777 7.07269C56.0777 6.96169 56.129 6.87844 56.2307 6.82294C56.3328 6.75952 56.4858 6.72784 56.69 6.72784C56.902 6.72784 57.1177 6.77141 57.3375 6.85864C57.5651 6.94582 57.7693 7.0965 57.9498 7.31055L58.9741 6.26404C58.7153 5.93104 58.3778 5.68129 57.9616 5.51482C57.5536 5.34041 57.1062 5.25319 56.6194 5.25319C56.1564 5.25319 55.7521 5.33246 55.4068 5.49101C55.0611 5.6496 54.7942 5.86763 54.6059 6.14509C54.4177 6.41464 54.3234 6.73575 54.3234 7.10839C54.3234 7.45721 54.3902 7.7466 54.5235 7.97651C54.6568 8.19848 54.8298 8.37292 55.0415 8.49975C55.2535 8.62661 55.4773 8.72572 55.7127 8.79705C55.9481 8.86841 56.172 8.9358 56.384 8.99925C56.5957 9.05475 56.7687 9.12214 56.902 9.20141C57.0434 9.27277 57.114 9.3798 57.114 9.52249C57.114 9.63349 57.055 9.72068 56.9373 9.78413C56.8274 9.84754 56.6666 9.87926 56.4546 9.87926C56.1483 9.87926 55.8657 9.82376 55.6069 9.71276C55.3478 9.59385 55.1239 9.43132 54.9356 9.22519L53.9113 10.2717C54.1077 10.4858 54.3431 10.6761 54.6178 10.8425C54.9004 11.0011 55.2026 11.124 55.5245 11.2112Z" fill="white"/>
<path d="M62.1416 11.3301C61.6158 11.3301 61.1488 11.2231 60.7407 11.009C60.3401 10.787 60.0264 10.4858 59.7988 10.1052C59.5708 9.71674 59.4572 9.27277 59.4572 8.77327V5.41969H61.2587V8.7495C61.2587 8.94769 61.2899 9.11816 61.353 9.26085C61.4235 9.40357 61.5256 9.51458 61.6589 9.59385C61.7926 9.67313 61.9533 9.71276 62.1416 9.71276C62.4085 9.71276 62.6205 9.62951 62.7776 9.46301C62.9347 9.2886 63.013 9.05078 63.013 8.7495V5.41969H64.8145V8.76139C64.8145 9.2688 64.7009 9.71674 64.4729 10.1052C64.2453 10.4858 63.9316 10.787 63.5309 11.009C63.1307 11.2231 62.6677 11.3301 62.1416 11.3301Z" fill="white"/>
<path d="M67.5115 5.41969H65.71V11.1993H67.5115V7.8219C67.5115 7.62371 67.5509 7.45721 67.6292 7.32244C67.7157 7.18766 67.8297 7.08457 67.9708 7.01325C68.1123 6.93394 68.273 6.8943 68.4535 6.8943C68.7126 6.8943 68.9283 6.97755 69.101 7.14405C69.2818 7.3026 69.372 7.52858 69.372 7.8219V11.1993H71.1735V7.8219C71.1735 7.62371 71.2129 7.45721 71.2912 7.32244C71.3777 7.18766 71.4913 7.08457 71.6328 7.01325C71.7739 6.93394 71.935 6.8943 72.1155 6.8943C72.3746 6.8943 72.5904 6.97755 72.763 7.14405C72.9434 7.3026 73.0337 7.52858 73.0337 7.8219V11.1993H74.8355V7.61974C74.8355 7.13614 74.7334 6.72386 74.5292 6.38295C74.3328 6.03409 74.0621 5.76851 73.7168 5.58619C73.3793 5.39587 72.9906 5.30074 72.551 5.30074C72.1036 5.30074 71.6993 5.39985 71.3384 5.59807C71.1037 5.72434 70.8988 5.88731 70.7231 6.08696C70.5594 5.87812 70.3604 5.70724 70.1254 5.57426C69.8116 5.39194 69.4545 5.30074 69.0542 5.30074C68.6302 5.30074 68.2496 5.39194 67.9121 5.57426C67.7651 5.65013 67.6318 5.74099 67.5115 5.84685V5.41969Z" fill="white"/>
</svg>
