<svg width="76" height="15" viewBox="0 0 76 15" fill="none" xmlns="http://www.w3.org/2000/svg">
<path fill-rule="evenodd" clip-rule="evenodd" d="M10.4063 4.38199C9.79568 3.96994 9.07783 3.75 8.3435 3.75V0C9.81216 0 11.2479 0.439867 12.469 1.26398C13.6902 2.08809 14.6419 3.25943 15.204 4.62986C15.766 6.0003 15.9131 7.50832 15.6266 8.96317C15.34 10.418 14.6328 11.7544 13.5943 12.8033C12.5558 13.8522 11.2326 14.5665 9.79219 14.8559C8.35174 15.1453 6.85865 14.9967 5.50178 14.4291C4.14491 13.8614 2.98517 12.9002 2.16922 11.6668C1.35327 10.4334 0.917755 8.98335 0.917755 7.5H4.63063C4.63063 8.24168 4.84839 8.9667 5.25636 9.58339C5.66433 10.2001 6.2442 10.6807 6.92266 10.9646C7.60107 11.2484 8.34762 11.3226 9.06784 11.1779C9.78806 11.0332 10.4496 10.6761 10.9689 10.1517C11.4882 9.62719 11.8418 8.95901 11.985 8.23159C12.1283 7.50416 12.0548 6.75015 11.7737 6.06495C11.4927 5.37971 11.0168 4.79404 10.4063 4.38199Z" fill="black"/>
<path fill-rule="evenodd" clip-rule="evenodd" d="M4.63062 1.98185e-06C4.63062 0.492459 4.53459 0.980094 4.348 1.43507C4.16141 1.89004 3.88792 2.30343 3.54315 2.65165C3.19838 2.99987 2.78908 3.2761 2.33861 3.46455C1.88814 3.653 1.40533 3.75 0.917755 3.75L0.917755 7.5C1.89292 7.5 2.85853 7.30601 3.75947 6.9291C4.6604 6.55219 5.47901 5.99974 6.16853 5.30329C6.85809 4.60688 7.40507 3.78008 7.77825 2.87013C8.15143 1.96018 8.3435 0.984913 8.3435 0L4.63062 1.98185e-06Z" fill="black"/>
<path d="M47.5585 5.41969H45.757V11.1993H47.5585V5.41969Z" fill="black"/>
<path d="M45.9575 4.33747C46.1457 4.52775 46.3811 4.62289 46.6637 4.62289C46.9462 4.62289 47.1779 4.52775 47.3583 4.33747C47.5392 4.13929 47.6294 3.90143 47.6294 3.62394C47.6294 3.33854 47.5392 3.10068 47.3583 2.91042C47.1779 2.72013 46.9462 2.625 46.6637 2.625C46.3811 2.625 46.1457 2.72013 45.9575 2.91042C45.7767 3.10068 45.6864 3.33854 45.6864 3.62394C45.6864 3.90143 45.7767 4.13929 45.9575 4.33747Z" fill="black"/>
<path d="M19.9114 11.1993V2.80338H21.76V9.55819H25.4454V11.1993H19.9114Z" fill="black"/>
<path fill-rule="evenodd" clip-rule="evenodd" d="M28.7745 11.3301C28.1857 11.3301 27.652 11.1993 27.1731 10.9377C26.7022 10.6681 26.3293 10.3034 26.0546 9.84356C25.7798 9.38374 25.6425 8.86841 25.6425 8.29759C25.6425 7.72676 25.7798 7.21541 26.0546 6.7635C26.3293 6.31159 26.7022 5.95481 27.1731 5.69321C27.6441 5.42362 28.1779 5.28885 28.7745 5.28885C29.371 5.28885 29.9048 5.41969 30.3758 5.68129C30.8468 5.94292 31.2196 6.30367 31.4944 6.7635C31.7691 7.21541 31.9065 7.72676 31.9065 8.29759C31.9065 8.86841 31.7691 9.38374 31.4944 9.84356C31.2196 10.3034 30.8468 10.6681 30.3758 10.9377C29.9048 11.1993 29.371 11.3301 28.7745 11.3301ZM28.7745 9.6771C29.0335 9.6771 29.2611 9.6216 29.4574 9.5106C29.6536 9.39169 29.8028 9.22916 29.9048 9.02302C30.0147 8.80897 30.0697 8.56714 30.0697 8.29759C30.0697 8.02804 30.0147 7.79415 29.9048 7.59596C29.7949 7.38982 29.6419 7.23128 29.4456 7.12028C29.2572 7.00133 29.0335 6.94189 28.7745 6.94189C28.5233 6.94189 28.2996 7.00133 28.1033 7.12028C27.9071 7.23128 27.754 7.38982 27.6441 7.59596C27.5342 7.8021 27.4793 8.03992 27.4793 8.30947C27.4793 8.57111 27.5342 8.80897 27.6441 9.02302C27.754 9.22916 27.9071 9.39169 28.1033 9.5106C28.2996 9.6216 28.5233 9.6771 28.7745 9.6771Z" fill="black"/>
<path fill-rule="evenodd" clip-rule="evenodd" d="M33.3332 13.4588C33.812 13.6808 34.3655 13.7918 34.9934 13.7918C35.6057 13.7918 36.1513 13.6689 36.6301 13.4231C37.1089 13.1773 37.4857 12.8365 37.7604 12.4004C38.0351 11.9644 38.1727 11.4491 38.1727 10.8544V5.41969H36.4063V5.808C36.275 5.69633 36.1258 5.60257 35.9589 5.52671C35.6528 5.37607 35.3035 5.30074 34.911 5.30074C34.3851 5.30074 33.918 5.4276 33.5099 5.68129C33.1016 5.92706 32.7798 6.26797 32.5443 6.70402C32.3088 7.13216 32.1911 7.61576 32.1911 8.1549C32.1911 8.68609 32.3088 9.16969 32.5443 9.60574C32.7798 10.0418 33.1016 10.3867 33.5099 10.6404C33.918 10.8941 34.3851 11.0209 34.911 11.0209C35.2956 11.0209 35.6449 10.9456 35.9589 10.795C36.111 10.722 36.2484 10.636 36.371 10.537V10.902C36.371 11.3063 36.2415 11.6195 35.9825 11.8415C35.7313 12.0635 35.382 12.1744 34.9346 12.1744C34.5735 12.1744 34.2634 12.111 34.0044 11.9842C33.7532 11.8573 33.5255 11.671 33.3214 11.4252L32.2147 12.5431C32.4894 12.9395 32.8623 13.2448 33.3332 13.4588ZM35.9001 9.23707C35.7195 9.34807 35.5037 9.40357 35.2525 9.40357C35.0013 9.40357 34.7815 9.34807 34.5931 9.23707C34.4125 9.12607 34.2713 8.97544 34.1692 8.78516C34.0672 8.58697 34.0161 8.37686 34.0161 8.1549C34.0161 7.91704 34.0672 7.70299 34.1692 7.51271C34.2713 7.32244 34.4165 7.1718 34.6049 7.0608C34.7933 6.9498 35.0091 6.8943 35.2525 6.8943C35.5037 6.8943 35.7195 6.9498 35.9001 7.0608C36.0885 7.1718 36.2297 7.32244 36.324 7.51271C36.426 7.70299 36.477 7.91704 36.477 8.1549C36.477 8.39273 36.426 8.60677 36.324 8.79705C36.2297 8.97941 36.0885 9.12607 35.9001 9.23707Z" fill="black"/>
<path fill-rule="evenodd" clip-rule="evenodd" d="M41.9639 11.3301C41.3751 11.3301 40.8411 11.1993 40.3626 10.9377C39.8914 10.6681 39.5186 10.3034 39.2439 9.84356C38.9691 9.38374 38.8317 8.86841 38.8317 8.29759C38.8317 7.72676 38.9691 7.21541 39.2439 6.7635C39.5186 6.31159 39.8914 5.95481 40.3626 5.69321C40.8334 5.42362 41.3673 5.28885 41.9639 5.28885C42.5602 5.28885 43.0941 5.41969 43.5649 5.68129C44.0361 5.94292 44.4088 6.30367 44.6836 6.7635C44.9584 7.21541 45.0957 7.72676 45.0957 8.29759C45.0957 8.86841 44.9584 9.38374 44.6836 9.84356C44.4088 10.3034 44.0361 10.6681 43.5649 10.9377C43.0941 11.1993 42.5602 11.3301 41.9639 11.3301ZM41.9639 9.6771C42.2227 9.6771 42.4503 9.6216 42.6467 9.5106C42.8428 9.39169 42.992 9.22916 43.0941 9.02302C43.204 8.80897 43.259 8.56714 43.259 8.29759C43.259 8.02804 43.204 7.79415 43.0941 7.59596C42.9842 7.38982 42.8312 7.23128 42.6348 7.12028C42.4466 7.00133 42.2227 6.94189 41.9639 6.94189C41.7126 6.94189 41.4887 7.00133 41.2926 7.12028C41.0962 7.23128 40.9433 7.38982 40.8334 7.59596C40.7234 7.8021 40.6685 8.03992 40.6685 8.30947C40.6685 8.57111 40.7234 8.80897 40.8334 9.02302C40.9433 9.22916 41.0962 9.39169 41.2926 9.5106C41.4887 9.6216 41.7126 9.6771 41.9639 9.6771Z" fill="black"/>
<path fill-rule="evenodd" clip-rule="evenodd" d="M51.8884 11.3182C51.5041 11.3182 51.1507 11.2429 50.8288 11.0923C50.6595 11.013 50.5065 10.9184 50.3699 10.8083V13.6372H48.5918V5.41969H50.3932V5.81857C50.5239 5.71061 50.6691 5.61727 50.8288 5.5386C51.1507 5.38001 51.5041 5.30074 51.8884 5.30074C52.4301 5.30074 52.9091 5.43157 53.3249 5.69321C53.7489 5.95481 54.0786 6.31159 54.314 6.7635C54.5576 7.21541 54.679 7.73074 54.679 8.30947C54.679 8.88825 54.5576 9.40357 54.314 9.85549C54.0786 10.3074 53.7489 10.6641 53.3249 10.9258C52.9091 11.1874 52.4301 11.3182 51.8884 11.3182ZM51.5591 9.6771C51.8179 9.6771 52.0418 9.61763 52.23 9.49871C52.4264 9.3798 52.5794 9.21724 52.6893 9.01114C52.7992 8.805 52.8541 8.57111 52.8541 8.30947C52.8541 8.03992 52.7992 7.8021 52.6893 7.59596C52.5794 7.38982 52.4264 7.23128 52.23 7.12028C52.0418 7.00133 51.822 6.94189 51.5706 6.94189C51.3196 6.94189 51.0957 7.00133 50.8997 7.12028C50.7111 7.23128 50.5622 7.38982 50.4523 7.59596C50.3424 7.8021 50.2874 8.03992 50.2874 8.30947C50.2874 8.57111 50.3383 8.805 50.4404 9.01114C50.5503 9.21724 50.7033 9.3798 50.8997 9.49871C51.0957 9.61763 51.3155 9.6771 51.5591 9.6771Z" fill="black"/>
<path d="M56.4423 11.2112C56.772 11.2984 57.1054 11.342 57.4429 11.342C58.1572 11.342 58.7223 11.1755 59.1385 10.8425C59.5622 10.5096 59.7742 10.0616 59.7742 9.49871C59.7742 9.13402 59.7077 8.84066 59.5741 8.6187C59.4408 8.38879 59.2681 8.20643 59.0561 8.07165C58.8441 7.93688 58.6202 7.82981 58.3848 7.75054C58.1494 7.67126 57.9255 7.60388 57.7139 7.54838C57.5019 7.49288 57.3293 7.42946 57.1956 7.3581C57.0623 7.28674 56.9955 7.1916 56.9955 7.07269C56.9955 6.96169 57.0467 6.87844 57.1484 6.82294C57.2505 6.75952 57.4035 6.72784 57.6077 6.72784C57.8197 6.72784 58.0354 6.77141 58.2553 6.85864C58.4829 6.94582 58.6871 7.0965 58.8675 7.31055L59.8919 6.26404C59.6331 5.93104 59.2956 5.68129 58.8794 5.51482C58.4713 5.34041 58.0239 5.25319 57.5372 5.25319C57.0742 5.25319 56.6699 5.33246 56.3246 5.49101C55.9789 5.6496 55.7119 5.86763 55.5237 6.14509C55.3355 6.41464 55.2411 6.73575 55.2411 7.10839C55.2411 7.45721 55.308 7.7466 55.4413 7.97651C55.5746 8.19848 55.7476 8.37292 55.9592 8.49975C56.1712 8.62661 56.3951 8.72572 56.6305 8.79705C56.8659 8.86841 57.0898 8.9358 57.3018 8.99925C57.5134 9.05475 57.6864 9.12214 57.8197 9.20141C57.9612 9.27277 58.0317 9.3798 58.0317 9.52249C58.0317 9.63349 57.9727 9.72068 57.855 9.78413C57.7451 9.84754 57.5843 9.87926 57.3723 9.87926C57.066 9.87926 56.7835 9.82376 56.5247 9.71276C56.2655 9.59385 56.0416 9.43132 55.8534 9.22519L54.829 10.2717C55.0254 10.4858 55.2608 10.6761 55.5356 10.8425C55.8181 11.0011 56.1204 11.124 56.4423 11.2112Z" fill="black"/>
<path d="M63.0593 11.3301C62.5336 11.3301 62.0665 11.2231 61.6585 11.009C61.2579 10.787 60.9441 10.4858 60.7165 10.1052C60.4885 9.71674 60.3749 9.27277 60.3749 8.77327V5.41969H62.1764V8.7495C62.1764 8.94769 62.2076 9.11816 62.2707 9.26085C62.3413 9.40357 62.4434 9.51458 62.5767 9.59385C62.7103 9.67313 62.8711 9.71276 63.0593 9.71276C63.3263 9.71276 63.5383 9.62951 63.6954 9.46301C63.8524 9.2886 63.9308 9.05078 63.9308 8.7495V5.41969H65.7322V8.76139C65.7322 9.2688 65.6186 9.71674 65.3907 10.1052C65.1631 10.4858 64.8493 10.787 64.4487 11.009C64.0485 11.2231 63.5855 11.3301 63.0593 11.3301Z" fill="black"/>
<path d="M68.4293 5.41969H66.6278V11.1993H68.4293V7.8219C68.4293 7.62371 68.4686 7.45721 68.547 7.32244C68.6335 7.18766 68.7475 7.08457 68.8885 7.01325C69.03 6.93394 69.1908 6.8943 69.3712 6.8943C69.6304 6.8943 69.8461 6.97755 70.0187 7.14405C70.1996 7.3026 70.2898 7.52858 70.2898 7.8219V11.1993H72.0913V7.8219C72.0913 7.62371 72.1306 7.45721 72.209 7.32244C72.2955 7.18766 72.4091 7.08457 72.5506 7.01325C72.6916 6.93394 72.8528 6.8943 73.0332 6.8943C73.2924 6.8943 73.5081 6.97755 73.6808 7.14405C73.8612 7.3026 73.9514 7.52858 73.9514 7.8219V11.1993H75.7533V7.61974C75.7533 7.13614 75.6512 6.72386 75.447 6.38295C75.2505 6.03409 74.9799 5.76851 74.6346 5.58619C74.2971 5.39587 73.9084 5.30074 73.4688 5.30074C73.0213 5.30074 72.617 5.39985 72.2561 5.59807C72.0215 5.72434 71.8165 5.88731 71.6409 6.08696C71.4772 5.87812 71.2782 5.70724 71.0431 5.57426C70.7294 5.39194 70.3722 5.30074 69.972 5.30074C69.548 5.30074 69.1674 5.39194 68.8299 5.57426C68.6829 5.65013 68.5496 5.74099 68.4293 5.84685V5.41969Z" fill="black"/>
</svg>
